<svg xmlns="http://www.w3.org/2000/svg" fill="none" viewBox="0 0 96 96" id="Mountain--Streamline-Plump-Remix.svg" height="96" width="96"><desc>Mountain Streamline Icon: https://streamlinehq.com</desc><g id="mountain--sun-landmark-mountain-place-travel-places"><path id="Union" fill="#000000" fill-rule="evenodd" d="M14 20c0 -6.62742 5.37258 -12 12 -12 6.6274 0 12 5.37258 12 12 0 6.6274 -5.3726 12 -12 12 -6.62742 0 -12 -5.3726 -12 -12Zm57.0882 12.0554c-2.2488 -3.0638 -5.518 -4.9342 -9.1246 -4.9344 -3.6066 0 -6.8762 1.87 -9.1252 4.9338 -2.3984 3.2674 -5.422 7.9534 -9.0764 14.662 -1.335 -1.7652 -2.5386 -3.2308 -3.6112 -4.4474 -2.2204 -2.518 -5.2152 -3.9774 -8.4186 -3.9774 -3.2036 -0.0002 -6.1986 1.4588 -8.4192 3.977 -2.6362 2.9896 -6.0666 7.489 -10.2989 14.2484 -5.29082 8.45 -8.57562 14.4692 -10.53598 18.3704 -1.23915 2.4658 -1.332026 5.292 -0.10014 7.7028 1.24582 2.438 3.63712 4.0332 6.47486 4.3774 4.38548 0.5318 11.52056 1.0326 22.87936 1.0326h30.2314c13.1452 0 21.0084 -0.75 25.5866 -1.4922 2.6572 -0.4308 4.8438 -1.9846 6.0268 -4.2482 1.1646 -2.2288 1.2034 -4.8402 0.2506 -7.1936 -1.9246 -4.7534 -5.5562 -12.9568 -11.9806 -25.2026 -4.4186 -8.4222 -8.002 -14.0528 -10.7588 -17.8086ZM59.312 36.78c0.9774 -1.3316 1.9828 -1.659 2.6512 -1.659 0.6684 0.0002 1.6738 0.3276 2.6514 1.6594 2.4662 3.36 5.8436 8.633 10.124 16.792 1.2278 2.3404 2.3498 4.5268 3.374 6.5634 -1.893 2.0112 -3.9314 4.027 -5.9658 5.7798 -3.0848 2.6576 -6.0252 4.5894 -8.3648 5.1092 -1.3064 0.2904 -2.997 0.0686 -4.9222 -0.5516 -1.9048 -0.6136 -3.93 -1.581 -5.853 -2.6546 -3.844 -2.1464 -7.1672 -4.6542 -8.1178 -5.3906 -0.516 -0.3996 -1.2054 -0.4098 -1.7298 -0.0766 -0.935 0.594 -3.9218 2.4566 -7.1144 4.077 -1.5982 0.811 -3.223 1.5486 -4.6538 2.0374 -1.4836 0.5068 -2.5746 0.679 -3.196 0.5546 -0.5308 -0.106 -1.303 -0.4162 -2.2814 -0.933 -0.9614 -0.508 -2.0598 -1.1818 -3.2272 -1.9634 -1.3862 -0.9278 -2.85276 -1.996 -4.279 -3.0956 0.45298 -0.7362 0.92332 -1.4942 1.4116 -2.274 4.055 -6.4762 7.2306 -10.608 9.5186 -13.2026 0.8584 -0.9734 1.7304 -1.26 2.3942 -1.2598 0.6636 0 1.536 0.2866 2.3944 1.2602 1.7526 1.9874 4.0286 4.88 6.8242 9.0422 0.797 1.1864 2.1676 1.8592 3.5964 1.7652 1.4288 -0.0938 2.6992 -0.9402 3.333 -2.2206 0.4148 -0.8376 0.8508 -1.6934 1.309 -2.5668 4.2796 -8.1594 7.657 -13.4324 10.1232 -16.7922Z" clip-rule="evenodd" stroke-width="1"></path></g></svg>