<svg xmlns="http://www.w3.org/2000/svg" fill="none" viewBox="0 0 96 96" id="Food-Takeaway-Packaging--Streamline-Plump-Remix.svg" height="96" width="96"><desc>Food Takeaway Packaging Streamline Icon: https://streamlinehq.com</desc><g id="food-takeaway-packaging--delivery-food-order-takeaway-packaging-lunch-dinner-breakfast-kitchenware"><path id="Union" fill="#000000" fill-rule="evenodd" d="M55.6964 2.2194c-1.732 -0.685822 -3.4132 -0.37306 -4.8162 0.45742 -1.3794 0.8166 -2.5124 2.13902 -3.2926 3.57178 -4.199 7.7113 -8.1268 16.051 -10.907 22.224 -7.0104 0.1724 -12.1912 0.489 -15.897 0.8096 -2.74944 0.2378 -4.69196 0.478 -5.9716 0.6644 -0.64002 0.093 -1.11512 0.1728 -1.44322 0.2322 -0.16408 0.0296 -0.29154 0.0542 -0.38458 0.0728 -0.04654 0.0094 -0.08448 0.0172 -0.11412 0.0234l-0.03828 0.0082 -0.01454 0.0032 -0.00614 0.0014 -0.00278 0.0006c-0.00032 0 -0.00064 0 0.01208 0.059l-0.00164 0.0004 -0.01304 -0.0588c-1.58064 0.3492 -2.75912 1.6018 -3.06106 3.1286L2.33878 58.021c-0.636748 2.1154 0.56192 4.3464 2.6773 4.9832s4.34644 -0.562 4.98318 -2.6774l1.5646 -5.1978c1.35098 11.135 2.9907 20.24 4.19508 26.1898 1.26748 6.2618 6.41666 11.0032 12.83146 11.6276 6.9066 0.672 13.454 0.8922 19.5778 0.8922 6.124 0 12.6714 -0.2202 19.5778 -0.8922 6.415 -0.6244 11.564 -5.3658 12.8316 -11.6276 1.2044 -5.9504 2.8444 -15.0568 4.1954 -26.1934l1.5658 5.2014c0.6368 2.1154 2.8678 3.3142 4.9832 2.6774s3.314 -2.8678 2.6772 -4.9832l-7.4104 -24.6186c-0.3066 -1.52 -1.4826 -2.7652 -3.058 -3.1134l-0.013 0.0588 -0.0018 -0.0004c0.0128 -0.059 0.0124 -0.059 0.0122 -0.059l-0.0028 -0.0006 -0.0062 -0.0014 -0.0144 -0.0032 -0.0384 -0.0082c-0.0296 -0.0062 -0.0676 -0.014 -0.114 -0.0234 -0.0932 -0.0186 -0.2206 -0.0432 -0.3846 -0.0728 -0.3282 -0.0594 -0.8032 -0.1392 -1.4434 -0.2322 -1.2796 -0.1864 -3.222 -0.4266 -5.9716 -0.6644 -1.3004 -0.1126 -2.7826 -0.2246 -4.4616 -0.33 4.0844 -3.4612 8.5898 -7.4216 12.7996 -11.42636 1.1824 -1.12472 2.1666 -2.56168 2.5984 -4.10582 0.439 -1.57038 0.3058 -3.27576 -0.8052 -4.77132 -0.3132 -0.42158 -0.678 -0.84894 -1.1024 -1.2734 -0.4246 -0.42464 -0.8522 -0.7895 -1.2738 -1.10272 -1.4954 -1.1107 -3.2004 -1.24378 -4.7706 -0.80468 -1.5438 0.43174 -2.9802 1.41588 -4.1048 2.5979 -6.7334 7.07826 -13.3446 14.9956 -17.671 20.3462 -2.3826 -0.0418 -4.9546 -0.0672 -7.7272 -0.0714 3.243 -4.648 6.864 -10.04482 10.138 -15.4023 0.8508 -1.3924 1.4298 -3.03514 1.447 -4.63842 0.0178 -1.6305 -0.5524 -3.24328 -2.0126 -4.40034 -0.4116 -0.32616 -0.8744 -0.64456 -1.3944 -0.9447 -0.52 -0.30026 -1.0274 -0.54202 -1.5158 -0.73544ZM23.6 79.7318c-1.364 -6.7382 -3.3086 -17.6724 -4.71534 -31.0492l1.39814 1.9974c2.84 4.057 7.2222 6.9992 12.3734 7.6498 3.9588 0.4998 9.4696 1.0096 15.512 1.0096 6.0426 0 11.5534 -0.5098 15.512 -1.0096 5.1514 -0.6506 9.5336 -3.5928 12.3734 -7.6498l1.3982 -1.9974c-1.4066 13.3768 -3.3512 24.311 -4.7152 31.0492 -0.581 2.8698 -2.9074 4.974 -5.7654 5.2522 -6.5896 0.6412 -12.8704 0.8546 -18.803 0.8546 -5.9324 0 -12.2132 -0.2134 -18.8028 -0.8546 -2.8582 -0.2782 -5.1846 -2.3824 -5.7654 -5.2522Z" clip-rule="evenodd" stroke-width="1"></path></g></svg>