<svg xmlns="http://www.w3.org/2000/svg" fill="none" viewBox="0 0 96 96" id="Ai-New-Spark--Streamline-Plump-Remix.svg" height="96" width="96"><desc>Ai New Spark Streamline Icon: https://streamlinehq.com</desc><g id="ai-new-spark--button-cross-add-plus-circle-+-artificial-intelligence-ai"><path id="Union" fill="#000000" fill-rule="evenodd" d="M77.5436 3.6018c-1.8966 -3.467759 -6.8772 -3.467767 -8.7736 0l-3.9868 7.2895c-0.8258 1.51012 -2.0674 2.75174 -3.5776 3.57764l-7.2894 3.98678c-3.4678 1.89648 -3.4678 6.87688 0 8.77348l7.2894 3.9868c1.5102 0.826 2.7518 2.0676 3.5776 3.5776l3.9868 7.2896c1.8964 3.4678 6.877 3.4678 8.7736 0l3.9866 -7.2896c0.826 -1.51 2.0676 -2.7516 3.5776 -3.5776l7.2894 -3.9868c3.4678 -1.8966 3.4678 -6.877 0 -8.77348l-7.2894 -3.98678c-1.51 -0.8259 -2.7516 -2.06752 -3.5776 -3.57764L77.5436 3.6018ZM40.1426 34.3482c-1.0624 0 -1.9768 0.0606 -2.7552 0.1538 -2.8954 0.3472 -4.436 2.857 -4.5282 5.344 -0.068 1.8366 -0.1404 4.5838 -0.1826 8.5452 -3.9614 0.0422 -6.7086 0.1146 -8.545 0.1826 -2.4872 0.0922 -4.99682 1.633 -5.34398 4.5284 -0.09332 0.7782 -0.15396 1.6928 -0.15396 2.755 0 1.0622 0.06064 1.9768 0.15396 2.7552 0.34714 2.8954 2.85678 4.4362 5.34398 4.5282 1.8364 0.068 4.5836 0.1404 8.545 0.1828 0.0422 3.9614 0.1146 6.7086 0.1826 8.545 0.0922 2.4872 1.6328 4.9968 4.5282 5.344 0.7784 0.0934 1.6928 0.154 2.7552 0.154 1.0622 0 1.9766 -0.0606 2.755 -0.154 2.8954 -0.3472 4.4362 -2.8568 4.5282 -5.344 0.068 -1.8364 0.1404 -4.5836 0.1828 -8.545 3.9612 -0.0424 6.7084 -0.1148 8.5448 -0.1828 2.4872 -0.092 4.9968 -1.6328 5.344 -4.5282 0.0934 -0.7784 0.154 -1.693 0.154 -2.7552 0 -1.0622 -0.0606 -1.9768 -0.154 -2.755 -0.3472 -2.8954 -2.8568 -4.4362 -5.344 -4.5284 -1.8364 -0.068 -4.5836 -0.1404 -8.5448 -0.1826 -0.0424 -3.9614 -0.1148 -6.7088 -0.1828 -8.5452 -0.092 -2.4872 -1.6328 -4.9968 -4.5282 -5.344 -0.7784 -0.0932 -1.6928 -0.1538 -2.755 -0.1538ZM9.00196 55.8584c0 -17.1988 13.94224 -31.1412 31.14064 -31.1412 2.209 0 4 -1.7908 4 -4 0 -2.2091 -1.791 -3.99996 -4 -3.99996C18.52574 16.71724 1.001954 34.2414 1.001954 55.8584c0 21.6168 17.523786 39.141 39.140646 39.141 21.6168 0 39.1404 -17.5242 39.1404 -39.141 0 -2.2092 -1.7908 -4 -4 -4 -2.209 0 -4 1.7908 -4 4 0 17.1986 -13.942 31.141 -31.1404 31.141S9.00196 73.057 9.00196 55.8584Z" clip-rule="evenodd" stroke-width="1"></path></g></svg>