<svg xmlns="http://www.w3.org/2000/svg" fill="none" viewBox="0 0 96 96" id="Business-Idea--Streamline-Plump-Remix.svg" height="96" width="96"><desc>Business Idea Streamline Icon: https://streamlinehq.com</desc><g id="business-idea--lightbulb-idea-brainstorm-puzzle-money-payment-business"><path id="Union" fill="#000000" fill-rule="evenodd" d="M57 6c0 -1.65686 1.3432 -3 3 -3 18.2254 0 33 14.7746 33 33 0 1.6568 -1.3432 3 -3 3h-5.5122c-1.2354 3.4956 -4.5692 6 -8.4878 6 -3.9186 0 -7.2524 -2.5044 -8.4878 -6H60c-1.6568 0 -3 -1.3432 -3 -3v-9c0 -1.6568 1.3432 -3 3 -3s3 -1.3432 3 -3c0 -1.65686 -1.3432 -3 -3 -3s-3 -1.34314 -3 -3V6ZM2 48C2 29.2224 17.22232 14 36 14c2.2092 0 4 1.79086 4 4v5.832c3.5318 1.5432 6 5.0674 6 9.168 0 4.1006 -2.4682 7.6248 -6 9.168V44h6c2.2092 0 4 1.7908 4 4 0 1.1046 0.8954 2 2 2s2 -0.8954 2 -2c0 -2.2092 1.7908 -4 4 -4h8c2.2092 0 4 1.7908 4 4 0 10.2886 -4.5742 19.5116 -11.7862 25.7406l-1.007 2.2054c-0.9692 2.123 -2.7134 3.9218 -4.9886 4.829l-0.36 3.0388c-0.5192 4.381 -3.7358 8.3084 -8.561 8.8196 -1.9674 0.2086 -4.4128 0.3674 -7.2972 0.3674 -3.0894 0 -5.5604 -0.1822 -7.4588 -0.416 -4.1816 -0.5146 -7.028 -3.7616 -7.774 -7.4978 -0.2472 -1.2378 -0.5206 -2.679 -0.78916 -4.2364 -2.37122 -0.8804 -4.188 -2.721 -5.18494 -4.9046l-1.00684 -2.2054C6.57426 67.5116 2 58.2886 2 48Zm30 -4v-5c0 -2.2092 1.7908 -4 4 -4 1.1046 0 2 -0.8954 2 -2s-0.8954 -2 -2 -2c-2.2092 0 -4 -1.7908 -4 -4v-4.6942C20.8436 24.0284 12.02848 32.8436 10.3058 44h0.52628C12.3752 40.4682 15.89936 38 20 38c4.1006 0 7.6248 2.4682 9.168 6H32ZM10.3055 52H14c2.20914 0 4 -1.7908 4 -4 0 -1.1046 0.89544 -2 2 -2 1.1046 0 2 0.8954 2 2 0 2.2092 1.7908 4 4 4h6v1.832c-3.5318 1.5432 -6 5.0674 -6 9.168 0 4.1006 2.4682 7.6248 6 9.168v1.788c-4.2954 -0.0982 -7.217 -0.3438 -9.0342 -0.5578 -0.2644 -0.031 -0.6416 -0.219 -0.8952 -0.7748l-1.3816 -3.026c-0.255 -0.5584 -0.6348 -1.0504 -1.1104 -1.4384C14.70536 64.1838 11.30654 58.488 10.3055 52ZM40 73.956V69c0 -2.2092 -1.7908 -4 -4 -4 -1.1046 0 -2 -0.8954 -2 -2s0.8954 -2 2 -2c2.2092 0 4 -1.7908 4 -4V52h2.832c1.5432 3.5318 5.0674 6 9.168 6 4.1006 0 7.6248 -2.4682 9.168 -6h0.5264c-1.001 6.488 -4.3998 12.1838 -9.273 16.159 -0.4756 0.388 -0.8554 0.88 -1.1104 1.4384l-1.3816 3.026c-0.2536 0.5558 -0.6308 0.7438 -0.8952 0.7748 -1.8172 0.214 -4.7388 0.4596 -9.0342 0.5578Z" clip-rule="evenodd" stroke-width="1"></path></g></svg>