<svg xmlns="http://www.w3.org/2000/svg" fill="none" viewBox="0 0 96 96" id="Crown--Streamline-Plump-Remix.svg" height="96" width="96"><desc>Crown Streamline Icon: https://streamlinehq.com</desc><g id="crown--reward-social-rating-media-queen-vip-king-crown"><path id="Union" fill="#000000" fill-rule="evenodd" d="M47.2068 15.40928c0.3716 -0.5457 1.215 -0.54572 1.5866 0 3.9516 5.80392 9.9296 14.48612 13.6516 19.41792 1.2336 1.6344 3.5024 2.0734 5.2566 1.0168 5.8954 -3.5506 13.0336 -7.3258 18.2308 -9.987 0.5806 -0.2972 1.0814 0.1282 1.0674 0.6116 -0.5732 19.675 -3.1538 38.3238 -4.642 47.6904 -0.397 2.4982 -2.0346 4.1968 -4.1272 4.5958 -5.378 1.0254 -14.9826 2.2452 -30.2304 2.2452 -15.248 0 -24.8526 -1.2198 -30.23044 -2.2452 -2.0927 -0.399 -3.73028 -2.0976 -4.12722 -4.5956 -1.48832 -9.3668 -4.06892 -28.0156 -4.64194 -47.6906 -0.01408 -0.4834 0.48672 -0.9088 1.06734 -0.6116 5.19712 2.6612 12.33546 6.4364 18.23086 9.987 1.754 1.0566 4.0228 0.6176 5.2564 -1.0168 3.722 -4.9318 9.7002 -13.614 13.6516 -19.41792Zm8.1992 -4.50238c-3.5466 -5.20922 -11.2652 -5.2092 -14.8118 0.00004 -3.2628 4.79196 -7.8052 11.39566 -11.3102 16.23366 -5.3718 -3.0992 -11.19702 -6.1652 -15.56996 -8.40432C7.85342 15.73542 0.808426 19.98724 1.003982 26.7016 1.591138 46.8614 4.22786 65.8876 5.74166 75.4146c0.85826 5.4014 4.7189 10.0908 10.52982 11.1986C22.2184 87.747 32.3322 89 48.0002 89c15.6678 0 25.7818 -1.253 31.7286 -2.3868 5.811 -1.1078 9.6716 -5.7972 10.5298 -11.1988 1.5138 -9.527 4.1506 -28.553 4.7378 -48.7128 0.1954 -6.71434 -6.8496 -10.96618 -12.7102 -7.9653 -4.3728 2.2391 -10.1982 5.3051 -15.57 8.4043 -3.5048 -4.838 -8.0474 -11.44174 -11.3102 -16.2337ZM46.0622 39.7366c0.5702 -0.3864 1.2498 -0.7366 1.938 -0.7366 0.688 0 1.3676 0.3502 1.9378 0.7366 0.6058 0.4106 1.2536 0.9782 1.9098 1.6344 1.3158 1.3158 2.7566 3.0798 4.0872 4.9174 1.3326 1.8404 2.5758 3.7832 3.4908 5.4688 0.4572 0.842 0.8408 1.635 1.1128 2.329 0.2604 0.6642 0.4616 1.3418 0.4616 1.9138 0 0.572 -0.2012 1.2496 -0.4616 1.9138 -0.272 0.694 -0.6556 1.487 -1.1128 2.329 -0.915 1.6856 -2.1582 3.6284 -3.4908 5.4688 -1.3306 1.8376 -2.7714 3.6016 -4.0872 4.9174 -0.6562 0.6562 -1.304 1.2238 -1.9098 1.6344 -0.5702 0.3864 -1.2498 0.7366 -1.9378 0.7366 -0.6882 0 -1.3678 -0.3502 -1.938 -0.7366 -0.6058 -0.4106 -1.2536 -0.9782 -1.9098 -1.6344 -1.3158 -1.3158 -2.7564 -3.0798 -4.0872 -4.9174 -1.3326 -1.8404 -2.5758 -3.7832 -3.4908 -5.4688 -0.457 -0.842 -0.8406 -1.635 -1.1126 -2.329 -0.2606 -0.6642 -0.4616 -1.3418 -0.4616 -1.9138 0 -0.572 0.201 -1.2496 0.4616 -1.9138 0.272 -0.694 0.6556 -1.487 1.1126 -2.329 0.915 -1.6856 2.1582 -3.6284 3.4908 -5.4688 1.3308 -1.8376 2.7714 -3.6016 4.0872 -4.9174 0.6562 -0.6562 1.304 -1.2238 1.9098 -1.6344Z" clip-rule="evenodd" stroke-width="1"></path></g></svg>