<svg xmlns="http://www.w3.org/2000/svg" fill="none" viewBox="0 0 96 96" id="Group-Meeting-Call--Streamline-Plump-Remix.svg" height="96" width="96"><desc>Group Meeting Call Streamline Icon: https://streamlinehq.com</desc><g id="group-meeting-call--group-meeting-call-work"><path id="Union" fill="#000000" fill-rule="evenodd" d="M9 24.5454c0 -5.12452 0.32722 -9.01016 0.70332 -11.78394 0.2275 -1.6779 1.65266 -3.07724 3.93644 -3.17308C19.91952 9.32484 31.09 9 48 9c16.91 0 28.0804 0.32486 34.3602 0.5884 2.2838 0.09584 3.709 1.49518 3.9364 3.17308 0.3762 2.77378 0.7034 6.65942 0.7034 11.78392 0 5.1246 -0.3272 9.0102 -0.7034 11.784 -0.2274 1.678 -1.6526 3.0772 -3.9364 3.173 -4.116 0.1728 -10.3332 0.372 -18.8904 0.4886 -0.932 -3.5254 -3.0368 -6.5728 -5.869 -8.7004C59.1062 29.2858 60 26.7922 60 24.0908c0 -6.62742 -5.3726 -12 -12 -12s-12 5.3726 -12 12c0 2.7014 0.894 5.195 2.3992 7.1998 -2.832 2.1276 -4.937 5.175 -5.869 8.7004 -8.5572 -0.1168 -14.7744 -0.3158 -18.89046 -0.4886 -2.28378 -0.0958 -3.70894 -1.4952 -3.93644 -3.173C9.32722 33.5556 9 29.67 9 24.5454ZM1.775848 11.68662C1.349034 14.83452 1 19.07988 1 24.5454c0 5.4656 0.349028 9.711 0.77584 12.8588 0.82582 6.0908 5.97938 9.8584 11.52846 10.0912 6.40108 0.2686 17.6837 0.5954 34.6957 0.5954 17.0118 0 28.2946 -0.3268 34.6956 -0.5954 5.5492 -0.2328 10.7028 -4.0004 11.5286 -10.0912 0.4268 -3.1478 0.7758 -7.3932 0.7758 -12.8588 0 -5.4655 -0.349 -9.71084 -0.7758 -12.85876 -0.8258 -6.09076 -5.9794 -9.85833 -11.5286 -10.091208C76.2946 1.326798 65.0118 1.000006 48 1 30.9882 0.999994 19.7054 1.32678 13.30432 1.59541 7.75522 1.828284 2.60166 5.59586 1.775848 11.68662ZM24 53c-7.73202 0 -14.00004 6.268 -14.00004 14 0 3.463 1.25862 6.6326 3.33966 9.0752 -4.41774 2.788 -7.66848 7.258 -8.85188 12.517C3.6521 92.3056 6.84446 95 9.99996 95H38c3.1554 0 6.3478 -2.6944 5.5122 -6.4078 -1.1834 -5.259 -4.4342 -9.729 -8.8518 -12.517C36.7414 73.6326 38 70.463 38 67c0 -7.732 -6.268 -14 -14 -14Zm48 0c-7.732 0 -14 6.268 -14 14 0 3.463 1.2586 6.6324 3.3396 9.0752 -4.4178 2.788 -7.6684 7.258 -8.8518 12.517C51.652 92.3056 54.8444 95 58 95l28 0c3.1554 0 6.3478 -2.6944 5.5122 -6.4078 -1.1834 -5.259 -4.4342 -9.729 -8.8518 -12.517C84.7414 73.6326 86 70.463 86 67c0 -7.732 -6.268 -14 -14 -14Z" clip-rule="evenodd" stroke-width="1"></path></g></svg>