<svg xmlns="http://www.w3.org/2000/svg" fill="none" viewBox="0 0 96 96" id="Ticket-1--Streamline-Plump-Remix.svg" height="96" width="96"><desc>Ticket 1 Streamline Icon: https://streamlinehq.com</desc><g id="ticket-1--hobby-ticket-event-entertainment-stub-theater-entertainment-culture"><path id="Union" fill="#000000" fill-rule="evenodd" d="M14.1376 17.2736c5.8908 -0.4652 16.346 -0.9744 33.8624 -0.9744 2.9192 0 5.6424 0.0142 8.1808 0.04V22.06c0 2.2592 1.8314 4.0904 4.0904 4.0904s4.0906 -1.8312 4.0906 -4.0904V16.4732c8.1244 0.1888 13.7418 0.5036 17.5008 0.8004 2.385 0.1882 4.0798 1.8256 4.3074 4.2616 0.253 2.7064 0.5074 6.3818 0.688 11.2664 -0.0074 0.0186 -0.024 0.0526 -0.0584 0.1038 -0.1044 0.1552 -0.315 0.3692 -0.6324 0.553 -4.985 2.8866 -8.3144 8.3364 -8.3144 14.5416 0 6.2054 3.3294 11.6552 8.3144 14.5418 0.3174 0.1838 0.528 0.3976 0.6324 0.553 0.0344 0.0512 0.051 0.0852 0.0584 0.1036 -0.1806 4.8846 -0.435 8.56 -0.688 11.2664 -0.2276 2.436 -1.9224 4.0734 -4.3074 4.2618 -3.759 0.2968 -9.3764 0.6114 -17.5008 0.8002v-6.2592c0 -2.2592 -1.8314 -4.0906 -4.0906 -4.0906s-4.0904 1.8314 -4.0904 4.0906v6.3932c-2.5384 0.0258 -5.2616 0.04 -8.1808 0.04 -17.5164 0 -27.9716 -0.5092 -33.8624 -0.9742 -2.3852 -0.1884 -4.0798 -1.8258 -4.3076 -4.262 -0.2528 -2.7062 -0.5074 -6.382 -0.688 -11.2668 0.0074 -0.0184 0.024 -0.0526 0.0584 -0.1038 0.1044 -0.1552 0.315 -0.3692 0.6324 -0.5528 4.9842 -2.8868 8.313 -8.3362 8.313 -14.541 0 -6.2048 -3.3288 -11.6542 -8.313 -14.541 -0.3174 -0.1838 -0.528 -0.3976 -0.6324 -0.553 -0.0344 -0.0512 -0.051 -0.0852 -0.0584 -0.1036 0.1806 -4.885 0.4352 -8.5608 0.688 -11.2674 0.2278 -2.436 1.9224 -4.0734 4.3076 -4.2618Zm72.7256 15.5122v-0.001c-0.0002 0 -0.0004 0.001 -0.0008 0.0026 -0.0004 0.0014 -0.0008 0.0032 -0.0012 0.0056 0.0012 -0.0036 0.0018 -0.006 0.002 -0.0072Zm-0.0006 30.428 0.0006 0.0014c0.0002 0 -0.0002 -0.0028 -0.002 -0.0082 0.0004 0.0032 0.001 0.0054 0.0014 0.0068Zm-77.7258 0.0008c-0.0002 0 0.0002 -0.0028 0.0022 -0.0082 -0.001 0.0052 -0.002 0.0082 -0.0022 0.0082Zm0 -30.4286c0.0002 0 0.0012 0.0026 0.002 0.008 -0.0018 -0.0054 -0.0022 -0.008 -0.002 -0.008ZM48 8.1184c-17.6616 0 -28.3416 0.513 -34.5062 0.9996 -6.325 0.4994 -11.2088 5.2336 -11.809 11.6562 -0.2698 2.8866 -0.5338 6.7272 -0.7192 11.7574 -0.1422 3.8598 2.4066 6.6396 4.767 8.0068 2.506 1.4514 4.2324 4.23 4.2324 7.4618s-1.7264 6.0104 -4.2324 7.4618c-2.3604 1.3672 -4.9092 4.147 -4.7668 8.0068 0.1852 5.0302 0.4492 8.8704 0.719 11.757 0.6002 6.4226 5.484 11.1568 11.809 11.6562 6.1646 0.4866 16.8446 0.9996 34.5062 0.9996s28.3418 -0.513 34.5064 -0.9996c6.325 -0.4994 11.2088 -5.2336 11.809 -11.6562 0.2696 -2.8864 0.5336 -6.7264 0.7188 -11.7564 0.1424 -3.8602 -2.407 -6.6402 -4.7676 -8.0072 -2.5062 -1.4512 -4.233 -4.23 -4.233 -7.4622 0 -3.232 1.727 -6.0108 4.233 -7.4622 2.3608 -1.367 4.91 -4.147 4.7676 -8.007 -0.1852 -5.0298 -0.4492 -8.8702 -0.7188 -11.7566 -0.6002 -6.4226 -5.484 -11.1568 -11.809 -11.6562 -6.1646 -0.4866 -16.8448 -0.9996 -34.5064 -0.9996Zm16.3618 25.7586c0 -2.259 -1.8314 -4.0904 -4.0906 -4.0904s-4.0904 1.8314 -4.0904 4.0904v7.8782c0 2.259 1.8314 4.0904 4.0904 4.0904s4.0906 -1.8314 4.0906 -4.0904v-7.8782Zm-4.0906 15.605c2.2592 0 4.0906 1.8312 4.0906 4.0904v7.878c0 2.259 -1.8314 4.0904 -4.0906 4.0904s-4.0904 -1.8314 -4.0904 -4.0904v-7.878c0 -2.2592 1.8314 -4.0904 4.0904 -4.0904Z" clip-rule="evenodd" stroke-width="1"></path></g></svg>