<svg xmlns="http://www.w3.org/2000/svg" viewBox="-0.5 -0.5 96 96" fill="currentColor" id="X-Logo-Fill--Streamline-Phosphor-Fill.svg" height="96" width="96"><desc>X Logo Fill Streamline Icon: https://streamlinehq.com</desc><path d="M89.688794921875 92.03766992187501c-0.680251953125 1.2391191406250002 -1.9807128906250002 2.010103515625 -3.3942460937499996 2.0123300781249998h-23.275c-1.3268828125 -0.00040820312500000004 -2.56151171875 -0.6789902343750001 -3.273046875 -1.798951171875l-19.63345703125 -30.853921874999997 -28.531246093750003 31.38243359375c-2.03470703125 2.1857421875 -5.672501953125 1.349185546875 -6.5480234374999995 -1.50575 -0.396625 -1.293298828125 -0.090880859375 -2.69978125 0.8068320312499999 -3.7117167968750002l29.952015625 -32.972904296875L5.4381562500000005 6.914218750000001c-1.605091796875 -2.5181308593750003 0.11771093749999999 -5.82951171875 3.1010078125000002 -5.960470703125001 0.057333984375 -0.0025234375 0.11466796875 -0.0037851562500000003 0.1720390625 -0.0037480468749999996h23.275c1.3268828125 0.00040820312500000004 2.56151171875 0.6789902343750001 3.273046875 1.798951171875l19.633419921875 30.853921874999997 28.531283203125 -31.38243359375c2.034669921875 -2.1857421875 5.67246484375 -1.349185546875 6.5480234374999995 1.50575 0.396587890625 1.293298828125 0.09084375 2.69978125 -0.806869140625 3.7117167968750002l-29.952015625 32.948671875 30.35450390625 47.704064453125c0.757142578125 1.195107421875 0.8036035156250001 2.707685546875 0.12119921875 3.9470273437500003Z" stroke-width="1"></path></svg>