<svg xmlns="http://www.w3.org/2000/svg" viewBox="-0.5 -0.5 96 96" fill="currentColor" id="Mastodon-Logo-Fill--Streamline-Phosphor-Fill.svg" height="96" width="96"><desc>Mastodon Logo Fill Streamline Icon: https://streamlinehq.com</desc><path d="M73.568 0.9500000000000001H21.432c-10.28352734375 0 -18.62 8.33647265625 -18.62 18.62v55.86c0 10.28352734375 8.33647265625 18.62 18.62 18.62h40.964000000000006c2.866736328125 0 4.658451171875 -3.103345703125 3.225064453125 -5.585999999999999 -0.665185546875 -1.152171875 -1.89465625 -1.86192578125 -3.225064453125 -1.8619999999999999H21.432c-6.169916015625001 -0.000259765625 -11.171999999999999 -5.002083984375 -11.171999999999999 -11.171999999999999v-3.7239999999999998h63.308c10.28323046875 -0.00044531249999999996 18.62 -8.336769531249999 18.62 -18.62V19.57c0 -10.28352734375 -8.33647265625 -18.62 -18.62 -18.62Zm0 48.412000000000006c0 2.866736328125 -3.103345703125 4.658451171875 -5.585999999999999 3.225064453125 -1.152208984375 -0.66522265625 -1.8619999999999999 -1.8946191406250001 -1.8619999999999999 -3.225064453125V34.466c0 -5.73347265625 -6.2066542968750005 -9.31690234375 -11.171999999999999 -6.450166015624999 -2.30441796875 1.330482421875 -3.7239999999999998 3.7892382812500003 -3.7239999999999998 6.450166015624999v14.895999999999999c0 2.866736328125 -3.103345703125 4.658451171875 -5.585999999999999 3.225064453125 -1.152208984375 -0.66522265625 -1.8619999999999999 -1.8946191406250001 -1.8619999999999999 -3.225064453125V34.466c0 -5.73347265625 -6.2066542968750005 -9.31690234375 -11.171999999999999 -6.450166015624999 -2.30441796875 1.330482421875 -3.7239999999999998 3.7892382812500003 -3.7239999999999998 6.450166015624999v14.895999999999999c0 2.866736328125 -3.103345703125 4.658451171875 -5.585999999999999 3.225064453125 -1.152208984375 -0.66522265625 -1.8619999999999999 -1.8946191406250001 -1.8619999999999999 -3.225064453125V34.466c0.012914062499999998 -11.4669453125 12.434275390625 -18.619814453125 22.358509765625 -12.875171875 1.3924921875 0.806052734375 2.64523046875 1.832423828125 3.709490234375 3.0391464843750002 7.584673828125 -8.600208984375 21.635099609375 -5.76471875 25.290744140624998 5.103912109375 0.512962890625 1.5250468750000001 0.7754375 3.123125 0.777255859375 4.73211328125Z" stroke-width="1"></path></svg>