<svg xmlns="http://www.w3.org/2000/svg" viewBox="0 0 96 96" id="Close--Streamline-Ultimate.svg" height="96" width="96"><desc>Close Streamline Icon: https://streamlinehq.com</desc><path d="M57.2 48.72a0.96 0.96 0 0 1 0 -1.4l37.04 -37.08a5.96 5.96 0 0 0 0 -8.48 6.04 6.04 0 0 0 -8.48 0L48.72 38.8a1 1 0 0 1 -1.44 0L10.24 1.76a6.04 6.04 0 0 0 -8.48 0 5.96 5.96 0 0 0 0 8.48l37.04 37.08a0.96 0.96 0 0 1 0 1.4L1.76 85.76a5.96 5.96 0 0 0 0 8.48 6.04 6.04 0 0 0 8.48 0l37.04 -37.04a1 1 0 0 1 1.44 0l37.04 37.04a6.04 6.04 0 0 0 8.48 0 5.96 5.96 0 0 0 0 -8.48Z" fill="#000000" stroke-width="1"></path></svg>