<svg xmlns="http://www.w3.org/2000/svg" viewBox="0 0 96 96" id="Down-Line--Streamline-Mingcute.svg" height="96" width="96"><desc>Down Line Streamline Icon: https://streamlinehq.com</desc><g fill="none" fill-rule="evenodd"><path d="M96 0v96H0V0h96ZM50.372 93.032l-0.044 0.008 -0.284 0.14 -0.08 0.016 -0.056 -0.016 -0.284 -0.14c-0.04 -0.016 -0.076 -0.004 -0.096 0.02l-0.016 0.04 -0.068 1.712 0.02 0.08 0.04 0.052 0.416 0.296 0.06 0.016 0.048 -0.016 0.416 -0.296 0.048 -0.064 0.016 -0.068 -0.068 -1.708c-0.008 -0.04 -0.036 -0.068 -0.068 -0.072Zm1.06 -0.452 -0.052 0.008 -0.74 0.372 -0.04 0.04 -0.012 0.044 0.072 1.72 0.02 0.048 0.032 0.028 0.804 0.372c0.048 0.016 0.092 0 0.116 -0.032l0.016 -0.056 -0.136 -2.456c-0.012 -0.048 -0.04 -0.08 -0.08 -0.088Zm-2.86 0.008a0.092 0.092 0 0 0 -0.108 0.024l-0.024 0.056 -0.136 2.456c0 0.048 0.028 0.08 0.068 0.096l0.06 -0.008 0.804 -0.372 0.04 -0.032 0.016 -0.044 0.068 -1.72 -0.012 -0.048 -0.04 -0.04 -0.736 -0.368Z" stroke-width="1"></path><path fill="#000000" d="M50.828 62.828a4 4 0 0 1 -5.656 0L22.544 40.2A4 4 0 1 1 28.2 34.544l19.8 19.8 19.8 -19.8a4 4 0 0 1 5.656 5.656l-22.628 22.628Z" stroke-width="1"></path></g></svg>