<svg xmlns="http://www.w3.org/2000/svg" fill="none" viewBox="0 0 96 96" height="96" width="96" id="Arrow-Outward--Streamline-Rounded----Material-Symbols.svg">
  <path fill="#000" d="M65.4 30.2L26.3 69.3C25.7 69.9 25 70.2 24.2 70.2C23.4 70.2 22.7 69.9 22.1 69.3C21.5 68.7 21.2 68 21.2 67.2C21.2 66.4 21.5 65.7 22.1 65.1L61.2 26H26.4C25.55 26 24.8376 25.7106 24.263 25.132C23.6876 24.554 23.4 23.8374 23.4 22.982C23.4 22.1274 23.6876 21.4166 24.263 20.85C24.8376 20.2834 25.55 20 26.4 20H68.4C69.25 20 69.9626 20.2874 70.538 20.862C71.1126 21.4374 71.4 22.15 71.4 23V65C71.4 65.85 71.1106 66.5624 70.532 67.137C69.954 67.7124 69.2372 68 68.382 68C67.5272 68 66.8166 67.7124 66.25 67.137C65.6832 66.5624 65.4 65.85 65.4 65V30.2Z" stroke-width="1"></path>
</svg>