<svg width="1286" height="505" viewBox="0 0 1286 505" fill="none" xmlns="http://www.w3.org/2000/svg">
<g clip-path="url(#clip0_340_835)">
<path d="M0.1 369.5H11.9V262.9H0.1V224H108.8C129.2 224 144.7 228.2 155.5 236.6C166.2 245 171.6 258.5 171.6 277.3C171.6 296.1 169.5 297 165.2 304.8C160.9 312.5 154.9 317.9 147 320.9L147.2 323.3C162.4 325.7 169.9 335 169.9 351.3V369.5H181V408.4H105.9V352.7C105.9 346.5 105 341.9 103.2 338.7C101.4 335.5 98.5 333.4 94.7 332.3C90.8 331.2 85.3 330.6 78.2 330.6V369.5H93.8V408.4H0V369.5H0.1ZM91 301.8C95.6 301.8 99 300.6 101.3 298.1C103.6 295.6 104.7 291.8 104.7 286.6V278.1C104.7 272.9 103.5 269.1 101.3 266.6C99 264.1 95.6 262.9 91 262.9H78.2V301.8H91Z" fill="black"/>
<path d="M345.001 369.5V408.4H280.101V389.9C268.701 404.4 254.501 411.7 237.501 411.7C220.501 411.7 214.601 407.6 208.001 399.4C201.401 391.2 198.201 379.9 198.201 365.5V315.5H187.801V276.6H252.701V354.3C252.701 359.5 253.801 363.3 256.101 365.8C258.401 368.3 261.801 369.5 266.401 369.5C271.001 369.5 274.401 368.3 276.701 365.8C279.001 363.3 280.101 359.5 280.101 354.3V315.4H267.301V276.5H334.601V369.4H345.001V369.5Z" fill="black"/>
<path d="M351.6 402.2V367.1H390V369.5C390 377.1 394.8 380.9 404.5 380.9C414.2 380.9 417.3 378 417.3 372.1C417.3 366.2 416.1 366.6 413.6 365C411.1 363.4 406.8 362.1 400.7 361L388.9 358.9C364.1 354.5 351.7 340.4 351.7 316.7C351.7 293 356.9 292.3 367.3 284.7C377.7 277.1 391.8 273.3 409.5 273.3C427.2 273.3 445.9 276.6 459.5 283.3V316.2H423.5V313.8C423.5 310.6 422.4 308.2 420.3 306.6C418.2 305 415.1 304.1 410.9 304.1C403 304.1 399.1 306.6 399.1 311.7C399.1 316.8 400.2 316.4 402.4 317.9C404.6 319.3 408.6 320.7 414.5 321.9L428 324.5C442 327.2 452.1 332.2 458.1 339.4C464.1 346.7 467.1 356 467.1 367.4C467.1 378.8 462.1 392.8 452.1 400.3C442.1 407.8 427.8 411.7 409.3 411.7C390.8 411.7 370.2 408.5 351.7 402.2H351.6Z" fill="black"/>
<path d="M495.299 399.5C486.799 391.4 482.599 377.7 482.599 358.4V315.5H472.199V276.6C478.199 276.6 482.699 275.1 485.699 272C488.699 268.9 490.199 264.7 490.199 259.3V248.6H540.399V276.6H572.399V315.5H540.399V354.4C540.399 359.6 541.499 363.4 543.799 365.9C546.099 368.4 549.499 369.6 554.099 369.6C558.699 369.6 566.599 368.9 573.799 367.5V404.7C569.399 406.4 563.399 408.1 555.899 409.6C548.399 411.1 540.799 411.8 532.999 411.8C516.299 411.8 503.699 407.7 495.199 399.6L495.299 399.5Z" fill="black"/>
<path d="M784.4 224.1H860.2V263H850.7L815.4 408.4H744.6L723 306.1H720.6L697.9 408.4H627.1L589.4 263H579.9V224.1H667.5V263H658.5L667.7 323.4H670.1L692.6 224.2H760.8L781.6 323.4H784L793.2 263H784.2V224.1H784.4Z" fill="black"/>
<path d="M868.699 394.1C856.099 382.3 849.699 365.2 849.699 342.6C849.699 320 855.999 302.8 868.699 291.1C881.299 279.3 898.899 273.5 921.299 273.5C943.699 273.5 959.599 279.3 969.499 290.9C979.399 302.5 984.299 316.9 984.299 334.1V351.2H907.499V352.6C907.499 358.4 909.199 362.7 912.699 365.5C916.199 368.3 921.899 369.6 929.999 369.6C938.099 369.6 948.799 368.9 957.499 367.5C966.199 366.1 973.799 364.3 980.199 362V399.9C974.699 402.9 966.599 405.6 955.899 408.1C945.199 410.6 933.699 411.8 921.199 411.8C898.799 411.8 881.199 405.9 868.599 394.2L868.699 394.1ZM934.999 325V322.2C934.999 316.8 933.799 313 931.599 310.6C929.299 308.2 925.899 307.1 921.299 307.1C916.699 307.1 913.299 308.3 910.999 310.8C908.699 313.3 907.599 317.1 907.599 322.3V325.1H935.099L934.999 325Z" fill="black"/>
<path d="M1009.4 394.1C996.8 382.3 990.4 365.2 990.4 342.6C990.4 320 996.7 302.8 1009.4 291.1C1022 279.3 1039.6 273.5 1062 273.5C1084.4 273.5 1100.3 279.3 1110.2 290.9C1120.1 302.5 1125 316.9 1125 334.1V351.2H1048.2V352.6C1048.2 358.4 1049.9 362.7 1053.4 365.5C1056.9 368.3 1062.6 369.6 1070.7 369.6C1078.8 369.6 1089.5 368.9 1098.2 367.5C1106.9 366.1 1114.5 364.3 1120.9 362V399.9C1115.4 402.9 1107.3 405.6 1096.6 408.1C1085.9 410.6 1074.4 411.8 1061.9 411.8C1039.5 411.8 1021.9 405.9 1009.3 394.2L1009.4 394.1ZM1075.7 325V322.2C1075.7 316.8 1074.5 313 1072.3 310.6C1070 308.2 1066.6 307.1 1062 307.1C1057.4 307.1 1054 308.3 1051.7 310.8C1049.4 313.3 1048.3 317.1 1048.3 322.3V325.1H1075.8L1075.7 325Z" fill="black"/>
<path d="M1274.9 369.5H1285.1V408.4H1227.1L1202.7 362.9H1197V408.4H1132.1V369.5H1142.5V262.9H1132.1V224H1197V320.2H1202.7L1232.1 276.6H1282.1V315.5H1272.4L1252.3 338L1275 369.5H1274.9Z" fill="black"/>
<path d="M641.6 122.1C595 122.1 552.7 127.7 521.4 136.9V215.1C552.7 224.3 595.1 229.9 641.6 229.9C688.1 229.9 742.6 222.5 774.7 211V141.2C742.6 129.6 694.9 122.3 641.6 122.3" fill="#A52B00"/>
<path d="M822.7 185.6L817.2 174.3V173C817.2 160.1 803.9 148.3 781.4 138.8V207.2C791.9 202.8 800.4 197.8 806.4 192.5C804.6 199.7 798.5 214.3 793.6 224.5C785.6 239.2 782.7 251.9 783.1 252.6C783.3 253 786.1 248.8 790.1 241.9C799.5 228.5 817.3 202.9 820.8 196.4C824.8 189 822.6 185.6 822.6 185.6" fill="#A52B00"/>
<path d="M469.399 173.7C469.399 176.2 469.899 178.6 470.899 181L467.599 186.8C467.599 186.8 464.999 190.2 469.599 197.4C473.699 203.7 494.099 228.5 504.799 241.5C509.399 248.2 512.599 252.3 512.799 251.9C513.199 251.3 509.899 238.8 500.799 224.5C496.499 216.8 491.399 206.7 488.299 199.2C496.899 204.6 508.099 209.6 521.399 213.8V133.5C489.299 143.7 469.399 157.9 469.399 173.7Z" fill="#A52B00"/>
<path d="M854.4 185.5L818.5 159C818.2 157.8 817.8 156.6 817.5 155.5L829.3 138.4C830.5 136.7 830.8 134.4 830 132.4C829.2 130.4 827.5 129 825.5 128.7L805.6 125.3C804.8 123.7 804 122.2 803.2 120.6L811.6 101.4C812.5 99.4 812.3 97.2 811.1 95.4C810 93.6 808 92.6 806 92.6L785.8 93.3C784.8 91.9 783.7 90.6 782.6 89.2L787.2 68.6C787.7 66.5 787.1 64.3 785.6 62.8C784.1 61.3 782.1 60.7 780.1 61.1L760.4 66C759.1 64.9 757.8 63.8 756.5 62.7L757.2 41.5C757.2 39.4 756.3 37.3 754.6 36.1C752.9 34.9 750.7 34.7 748.8 35.6L730.4 44.4C728.9 43.6 727.4 42.7 725.9 41.9L722.7 21C722.4 18.9 721 17.1 719.1 16.3C717.2 15.5 715 15.7 713.4 17L697 29.3C695.4 28.8 693.8 28.3 692.1 27.8L685 8C684.3 6 682.6 4.5 680.6 4.1C678.6 3.7 676.5 4.4 675.1 5.9L661.3 21.4C659.6 21.2 658 21 656.3 20.9L645.6 2.9C644.5 1.1 642.6 0 640.6 0C638.6 0 636.6 1.1 635.6 2.9L624.9 20.9C623.2 21 621.6 21.2 619.9 21.4L606.1 5.9C604.7 4.3 602.6 3.6 600.6 4.1C598.6 4.5 596.9 6 596.2 8L589.1 27.8C587.5 28.3 585.8 28.8 584.2 29.3L567.8 17C566.1 15.7 564 15.5 562.1 16.3C560.2 17.1 558.9 18.9 558.5 21L555.3 41.9C553.8 42.7 552.3 43.6 550.8 44.4L532.4 35.6C530.5 34.7 528.4 34.9 526.6 36.1C524.9 37.3 523.9 39.3 524 41.5L524.7 62.7C523.4 63.8 522.1 64.9 520.8 66L501.1 61.2C499.1 60.7 497 61.3 495.6 62.9C494.1 64.4 493.6 66.6 494 68.7L498.6 89.3C497.5 90.6 496.5 92 495.4 93.4L475.2 92.7C473.2 92.7 471.2 93.7 470.1 95.5C469 97.3 468.8 99.6 469.6 101.5L478 120.7C477.2 122.2 476.4 123.8 475.6 125.4L455.7 128.8C453.7 129.1 452 130.6 451.2 132.5C450.4 134.5 450.7 136.7 451.9 138.5L463.7 155.6C463.6 155.9 463.5 156.2 463.4 156.5L430.1 192C430.1 192 425 196 432.4 205.5C439 213.8 472.6 246.8 490.4 264.1C497.9 272.9 503.1 278.3 503.6 277.8C504.5 277 500 261.1 485.2 242.4C473.8 225.6 459 199.7 462.5 196.8C462.5 196.8 466.5 191.8 474.4 188.2C474.7 188.4 474.1 188 474.4 188.2C474.4 188.2 641.6 265.5 796.6 189.5C814.3 186.3 825 195.8 825 195.8C828.7 197.9 819.1 224.5 811.2 242.1C800.5 262.1 798.9 277.7 799.8 278.2C800.4 278.5 804.3 272.6 809.8 263.1C823.5 243.9 849.5 207.4 854.2 198.5C859.6 188.4 854.2 185.6 854.2 185.6" fill="#F74C00"/>
<path d="M585.1 235.2C584.5 234.6 584.1 234.3 584.1 234.3L638.9 229.8C594.2 170.7 558.4 217.8 554.6 223V235.1H585.1V235.2Z" fill="black"/>
<path d="M699.1 234.5C699.7 233.9 700.1 233.6 700.1 233.6L647.5 229.7C692.2 168.2 725.8 217 729.6 222.3V234.4H699.1V234.5Z" fill="black"/>
<path d="M783.3 175.9C783.3 175.9 777.3 199.8 740.1 224.9L729.7 227.3C729.7 227.3 695.9 165.5 648.1 235.1C648.1 235.1 663 226.4 703 237C703 237 684.6 265.2 647.6 264.3C647.6 264.3 683.1 307 737.1 245.3C737.1 245.3 794.2 223.2 798.8 175.7H783.4L783.3 175.9Z" fill="#F74C00"/>
<path d="M672.4 145.2C672.4 145.2 689.1 126.9 705.8 145.2C705.8 145.2 718.9 169.7 705.8 181.9C705.8 181.9 684.3 199 672.4 181.9C672.4 181.9 658.1 168.4 672.4 145.2Z" fill="black"/>
<path d="M691.7 152.1C691.7 159.2 687.5 165 682.3 165C677.1 165 672.9 159.2 672.9 152.1C672.9 145 677.1 139.2 682.3 139.2C687.5 139.2 691.7 145 691.7 152.1Z" fill="white"/>
<path d="M597.8 140.2C597.8 140.2 626.5 127.5 634.3 155.9C634.3 155.9 642.5 189 610.8 190.9C610.8 190.9 570.3 183.1 597.9 140.3" fill="black"/>
<path d="M612.201 152.5C612.201 159.9 607.901 165.8 602.501 165.8C597.101 165.8 592.801 159.8 592.801 152.5C592.801 145.2 597.101 139.2 602.501 139.2C607.901 139.2 612.201 145.2 612.201 152.5Z" fill="white"/>
<path d="M581.7 239.6C617 235.1 637.4 234.7 637.4 234.7C590.2 172.3 551.9 228.8 551.9 228.8C542.3 225.4 532.5 212 525.2 199.7L495.9 191C529.6 248.5 554.8 249.3 554.8 249.3C607.1 316.6 631.9 262.5 631.9 262.5C602.5 259.1 581.7 239.6 581.7 239.6Z" fill="#F74C00"/>
<path d="M478.101 489.3C475.601 489.3 473.401 488.7 471.601 487.6C469.701 486.5 468.201 485 466.901 483C465.701 481.1 464.901 478.8 464.601 476.4L465.801 474.8L465.101 488.5H453.801V434.6H466.701V462.5L465.501 460.7C466.201 457.6 467.601 455 469.801 452.9C472.001 450.9 474.901 449.8 478.601 449.8C482.301 449.8 484.101 450.6 486.401 452.1C488.701 453.7 490.501 455.9 491.801 458.9C493.101 461.9 493.701 465.4 493.701 469.6C493.701 473.8 493.001 477.2 491.701 480.1C490.401 483 488.601 485.3 486.201 486.8C483.901 488.3 481.201 489.1 478.001 489.1L478.101 489.3ZM473.601 479.8C475.801 479.8 477.601 479 478.801 477.3C480.101 475.7 480.701 473.1 480.701 469.5C480.701 465.9 480.101 463.4 478.801 461.7C477.501 460.1 475.801 459.2 473.601 459.2C471.401 459.2 470.901 459.6 469.901 460.5C468.901 461.4 468.101 462.5 467.501 464C466.901 465.5 466.701 467.4 466.701 469.5C466.701 471.6 467.001 473.5 467.501 475C468.101 476.5 468.901 477.7 469.901 478.4C471.001 479.2 472.201 479.6 473.601 479.6V479.8Z" fill="black"/>
<path d="M537.201 450.7L523.401 488.6C522.001 492.6 520.401 495.8 518.801 498.1C517.101 500.5 515.201 502.2 512.901 503.3C510.601 504.4 507.901 504.9 504.701 504.9C501.501 504.9 500.601 504.7 498.901 504.2C497.101 503.8 495.601 503.1 494.301 502.3L496.901 493.6C497.801 494.3 498.801 494.7 499.801 495C500.801 495.3 502.101 495.4 503.701 495.4C505.301 495.4 506.401 495.1 507.301 494.6C508.201 494.1 509.001 493.1 509.501 491.7L510.501 489.4L506.101 479.1L494.701 450.7H508.901L514.701 472.3L516.501 480.3L518.601 472L524.401 450.7H537.201Z" fill="black"/>
<path d="M586.499 438.5C592.499 438.5 597.099 439.9 600.399 442.7C603.699 445.5 605.399 449.2 605.399 453.9C605.399 458.6 603.799 462.9 600.499 465.6C597.199 468.3 592.599 469.6 586.599 469.6L585.399 470.3H575.499V488.5H562.699V438.5H586.599H586.499ZM584.699 461C587.199 461 589.099 460.5 590.399 459.5C591.699 458.5 592.299 456.9 592.299 454.7C592.299 452.5 591.699 450.9 590.399 449.9C589.099 448.9 587.199 448.4 584.699 448.4H575.499V461H584.699ZM592.399 463.8L608.399 488.6H593.999L581.199 466.7L592.399 463.8Z" fill="black"/>
<path d="M626.401 489.3C623.801 489.3 621.601 488.9 619.601 488C617.701 487.1 616.101 485.7 615.001 483.7C613.901 481.7 613.301 479.2 613.301 476V450.7H626.201V473C626.201 475.4 626.701 477.1 627.601 478.1C628.601 479.1 629.901 479.5 631.701 479.5C633.501 479.5 633.501 479.3 634.301 479C635.101 478.7 635.801 478.2 636.401 477.5C637.001 476.8 637.501 475.9 637.801 474.9C638.101 473.8 638.301 472.5 638.301 471.1V450.8H651.201V488.7H639.701L639.301 481.6C638.101 484.3 636.401 486.3 634.201 487.5C632.001 488.8 629.401 489.4 626.301 489.4L626.401 489.3Z" fill="black"/>
<path d="M676.399 489.3C672.599 489.3 669.099 488.7 665.799 487.4C662.499 486.2 659.799 484.4 657.699 482.1L663.799 475C665.099 476.6 666.799 478 668.899 479.1C670.999 480.2 673.299 480.7 675.899 480.7C678.499 480.7 678.799 480.5 679.799 480.1C680.799 479.7 681.299 478.9 681.299 477.9C681.299 476.9 680.999 476.6 680.499 476.2C679.999 475.8 678.999 475.4 677.499 475L672.299 474C667.499 473 664.099 471.6 662.099 469.7C660.099 467.8 659.099 465.3 659.099 462.2C659.099 459.1 659.699 458.2 660.999 456.3C662.299 454.4 664.299 452.9 666.899 451.7C669.499 450.5 672.899 449.9 676.899 449.9C680.899 449.9 684.099 450.5 686.999 451.6C689.899 452.7 692.299 454.3 693.999 456.4L687.799 463.4C686.599 461.8 684.999 460.6 683.099 459.8C681.199 459 679.199 458.5 677.299 458.5C675.399 458.5 675.099 458.6 674.299 458.8C673.499 459 672.899 459.4 672.399 459.8C671.899 460.2 671.799 460.7 671.799 461.3C671.799 461.9 672.099 462.5 672.699 463C673.299 463.5 674.499 463.9 676.199 464.3L683.099 465.7C686.999 466.4 689.799 467.7 691.499 469.6C693.199 471.5 694.099 473.7 694.099 476.4C694.099 479.1 693.399 481 692.099 482.9C690.799 484.9 688.799 486.5 686.199 487.6C683.599 488.7 680.299 489.3 676.299 489.3H676.399Z" fill="black"/>
<path d="M728.001 450.7V459.9H697.301V450.7H728.001ZM716.701 438.6V475C716.701 476.8 717.101 478.1 718.001 478.9C718.901 479.7 720.101 480.1 721.701 480.1C723.301 480.1 724.001 480 724.801 479.7C725.701 479.4 726.501 479 727.201 478.5L728.601 486.4C727.301 487.3 725.701 488 723.801 488.5C721.901 489 719.901 489.3 717.901 489.3C715.001 489.3 712.501 488.9 710.401 488.1C708.301 487.3 706.701 486 705.601 484.2C704.501 482.4 703.901 480.1 703.801 477.2V442.2L716.701 438.6Z" fill="black"/>
<path d="M779.9 438.5V488.5H765.4L749.9 461.5L746.1 454.1L746.4 463.3V488.5H734.9V438.5H749.4L764.9 465.5L768.7 472.9L768.4 463.7V438.5H779.9Z" fill="black"/>
<path d="M804 478.4H829.1V488.5H791V438.5H804V478.4Z" fill="black"/>
<path d="M428.4 462.9H0.0996094V476H428.4V462.9Z" fill="black"/>
<path d="M1282.2 462.9H853.9V476H1282.2V462.9Z" fill="black"/>
<path d="M466.901 453.6H453.801V464.1H466.901V453.6Z" fill="#121212"/>
</g>
<defs>
<clipPath id="clip0_340_835">
<rect width="1285.1" height="504.7" fill="white"/>
</clipPath>
</defs>
</svg>
