<svg width="521" height="109" viewBox="0 0 521 109" fill="none" xmlns="http://www.w3.org/2000/svg">
<path d="M39.3547 15.3093C53.8347 5.1663 67.2687 5.5193 80.2627 5.8593C82.1157 5.9073 84.0307 5.9573 85.9107 5.9753L85.9607 0.76329C84.1247 0.74629 82.2307 0.6963 80.3997 0.6483C66.5637 0.2853 52.2527 -0.0887089 36.3647 11.0393C27.3827 17.3303 20.7057 26.8353 17.0557 38.5263C14.3147 47.3053 14.2257 54.1923 14.2227 54.4813L19.4357 54.5293C19.4377 54.2743 19.9397 28.9093 39.3547 15.3093Z" fill="#0D47A1"/>
<path d="M44.2244 21.2359C29.6214 31.5109 27.4414 46.4899 27.4414 54.5039H32.6534C32.6534 47.4999 34.5464 34.4199 47.2244 25.4999C57.7364 18.1019 70.3354 18.4129 81.4524 18.6859C83.0014 18.7239 84.4644 18.7599 85.9094 18.7749L85.9634 13.5629C84.5554 13.5489 83.1104 13.5119 81.5804 13.4749C70.2484 13.1969 56.1444 12.8489 44.2244 21.2359Z" fill="#0D47A1"/>
<path d="M51.8976 31.9153C41.9826 38.8923 40.4946 49.0453 40.4916 54.4863H40.4846C40.4846 58.9143 39.2906 67.1823 31.2926 72.8113C24.5186 77.5763 11.1086 77.2873 3.09656 77.1163C2.07356 77.0943 1.12856 77.0733 0.280563 77.0643L0.226562 82.2773C1.05656 82.2863 1.98256 82.3063 2.98456 82.3273C4.66956 82.3633 6.57356 82.4043 8.61156 82.4043C17.0366 82.4043 27.7106 81.7043 34.2926 77.0733C44.2066 70.0973 45.6946 59.9433 45.6976 54.5023H45.7046C45.7046 50.0743 46.8986 41.8073 54.8976 36.1783C61.6696 31.4123 75.0796 31.7013 83.0926 31.8723C84.1156 31.8943 85.0606 31.9153 85.9086 31.9243L85.9626 26.7113C85.1326 26.7033 84.2066 26.6833 83.2046 26.6613C74.5516 26.4753 60.0706 26.1643 51.8976 31.9153Z" fill="#0D47A1"/>
<path d="M46.8365 93.6817C32.3565 103.825 18.9215 103.471 5.92847 103.132C4.07547 103.084 2.16047 103.034 0.280472 103.016L0.230469 108.228C2.06647 108.245 3.96047 108.295 5.79247 108.343C8.26247 108.409 10.7455 108.473 13.2525 108.473C24.7865 108.473 36.7755 107.094 49.8275 97.9517C58.8085 91.6607 65.4855 82.1557 69.1355 70.4647C71.8765 61.6867 71.9655 54.7987 71.9685 54.5097L66.7555 54.4617C66.7535 54.7167 66.2515 80.0817 46.8365 93.6817Z" fill="#0D47A1"/>
<path d="M11.1846 95.6211C21.1086 95.6211 32.2616 94.5811 41.9646 87.7541C56.5676 77.4781 58.7486 62.5001 58.7486 54.4861H53.5356C53.5356 61.4901 51.6426 74.5701 38.9656 83.4901C28.4526 90.8871 15.8536 90.5771 4.73656 90.3041C3.18756 90.2661 1.72556 90.2291 0.280563 90.2151L0.226562 95.4271C1.63356 95.4411 3.07856 95.4771 4.60756 95.5151C6.71556 95.5661 8.91656 95.6211 11.1846 95.6211Z" fill="#0D47A1"/>
<path d="M154.727 63.1265C154.727 66.4725 153.518 69.0955 151.099 70.9995C148.681 72.9035 145.345 73.8555 141.091 73.8555C136.837 73.8555 133.355 73.1945 130.645 71.8745V66.0605C132.36 66.8665 134.183 67.4995 136.112 67.9645C138.042 68.4275 139.838 68.6575 141.502 68.6575C143.938 68.6575 145.735 68.1945 146.893 67.2695C148.05 66.3435 148.629 65.0995 148.629 63.5385C148.629 62.1325 148.098 60.9385 147.034 59.9625C145.97 58.9835 143.775 57.8255 140.448 56.4875C137.017 55.0995 134.599 53.5135 133.192 51.7285C131.786 49.9445 131.082 47.8025 131.082 45.2965C131.082 42.1575 132.197 39.6875 134.427 37.8865C136.657 36.0855 139.65 35.1855 143.406 35.1855C147.008 35.1855 150.593 35.9745 154.161 37.5525L152.206 42.5695C148.861 41.1635 145.876 40.4605 143.252 40.4605C141.262 40.4605 139.753 40.8945 138.724 41.7595C137.695 42.6245 137.18 43.7715 137.18 45.1945C137.18 46.1715 137.386 47.0075 137.798 47.7025C138.209 48.3975 138.887 49.0525 139.83 49.6715C140.773 50.2885 142.471 51.1035 144.924 52.1145C147.686 53.2655 149.71 54.3355 150.996 55.3315C152.283 56.3255 153.226 57.4485 153.827 58.7005C154.427 59.9525 154.727 61.4295 154.727 63.1265Z" fill="#0D47A1"/>
<path d="M186.761 73.3418H165.484V35.7268H186.761V40.9238H171.633V51.1638H185.809V56.3088H171.633V68.1188H186.761V73.3418Z" fill="#0D47A1"/>
<path d="M214.375 40.4605C210.841 40.4605 208.063 41.7125 206.039 44.2165C204.015 46.7205 203.003 50.1775 203.003 54.5855C203.003 59.1985 203.976 62.6895 205.923 65.0565C207.87 67.4235 210.687 68.6065 214.375 68.6065C215.97 68.6065 217.514 68.4485 219.006 68.1305C220.499 67.8145 222.05 67.4055 223.663 66.9095V72.1835C220.712 73.2985 217.368 73.8555 213.629 73.8555C208.123 73.8555 203.895 72.1875 200.945 68.8515C197.994 65.5155 196.52 60.7435 196.52 54.5325C196.52 50.6225 197.235 47.2005 198.667 44.2675C200.1 41.3355 202.171 39.0875 204.881 37.5265C207.591 35.9665 210.773 35.1855 214.426 35.1855C218.269 35.1855 221.819 35.9915 225.078 37.6035L222.865 42.7245C221.596 42.1245 220.254 41.5975 218.839 41.1425C217.424 40.6875 215.936 40.4605 214.375 40.4605Z" fill="#0D47A1"/>
<path d="M238.871 54.4825C238.871 59.1135 239.806 62.6255 241.676 65.0175C243.545 67.4105 246.315 68.6075 249.986 68.6075C253.64 68.6075 256.396 67.4235 258.258 65.0565C260.119 62.6895 261.05 59.1645 261.05 54.4825C261.05 49.8695 260.127 46.3695 258.284 43.9845C256.439 41.6015 253.691 40.4085 250.038 40.4085C246.35 40.4085 243.567 41.6015 241.688 43.9845C239.81 46.3695 238.871 49.8695 238.871 54.4825ZM267.585 54.4825C267.585 60.6055 266.054 65.3655 262.991 68.7615C259.93 72.1585 255.595 73.8555 249.986 73.8555C244.308 73.8555 239.947 72.1695 236.903 68.8005C233.858 65.4295 232.336 60.6405 232.336 54.4315C232.336 48.2225 233.867 43.4535 236.929 40.1255C239.991 36.7985 244.36 35.1345 250.038 35.1345C255.629 35.1345 259.951 36.8245 263.005 40.2035C266.058 43.5825 267.585 48.3415 267.585 54.4825Z" fill="#0D47A1"/>
<path d="M310.478 73.3418H302.94L284.441 43.3668H284.235L284.364 45.0388C284.604 48.2308 284.724 51.1468 284.724 53.7868V73.3418H279.141V35.7268H286.602L305.049 65.5448H305.204C305.169 65.1508 305.101 63.7148 304.998 61.2368C304.895 58.7578 304.843 56.8238 304.843 55.4338V35.7268H310.478V73.3418Z" fill="#0D47A1"/>
<path d="M347.994 54.3788C347.994 45.3748 343.783 40.8708 335.361 40.8708H330.035V68.1698H334.409C343.466 68.1698 347.994 63.5738 347.994 54.3788ZM354.477 54.1738C354.477 60.3828 352.754 65.1308 349.306 68.4138C345.858 71.6988 340.892 73.3418 334.409 73.3418H323.887V35.7268H335.515C341.502 35.7268 346.158 37.3378 349.486 40.5628C352.813 43.7888 354.477 48.3238 354.477 54.1738Z" fill="#0D47A1"/>
<path d="M397.933 63.1265C397.933 66.4725 396.724 69.0955 394.306 70.9995C391.887 72.9035 388.551 73.8555 384.297 73.8555C380.043 73.8555 376.562 73.1945 373.852 71.8745V66.0605C375.567 66.8665 377.389 67.4995 379.319 67.9645C381.248 68.4275 383.045 68.6575 384.709 68.6575C387.144 68.6575 388.941 68.1945 390.099 67.2695C391.257 66.3435 391.835 65.0995 391.835 63.5385C391.835 62.1325 391.304 60.9385 390.241 59.9625C389.177 58.9835 386.982 57.8255 383.654 56.4875C380.223 55.0995 377.805 53.5135 376.399 51.7285C374.992 49.9445 374.288 47.8025 374.288 45.2965C374.288 42.1575 375.404 39.6875 377.633 37.8865C379.863 36.0855 382.857 35.1855 386.613 35.1855C390.215 35.1855 393.799 35.9745 397.368 37.5525L395.412 42.5695C392.068 41.1635 389.082 40.4605 386.458 40.4605C384.468 40.4605 382.959 40.8945 381.93 41.7595C380.901 42.6245 380.386 43.7715 380.386 45.1945C380.386 46.1715 380.592 47.0075 381.004 47.7025C381.415 48.3975 382.093 49.0525 383.037 49.6715C383.98 50.2885 385.678 51.1035 388.131 52.1145C390.892 53.2655 392.916 54.3355 394.203 55.3315C395.49 56.3255 396.432 57.4485 397.033 58.7005C397.633 59.9525 397.933 61.4295 397.933 63.1265Z" fill="#0D47A1"/>
<path d="M418.208 73.3418H412.06V40.9998H400.996V35.7268H429.271V40.9998H418.208V73.3418Z" fill="#0D47A1"/>
<path d="M452.994 57.5958L449.47 47.3558C449.212 46.6698 448.856 45.5898 448.401 44.1138C447.947 42.6388 447.634 41.5588 447.463 40.8708C447 42.9828 446.322 45.2888 445.431 47.7928L442.034 57.5958H452.994ZM458.372 73.3418L454.615 62.8968H440.233L436.554 73.3418H430.07L444.143 35.5728H450.833L464.906 73.3418H458.372Z" fill="#0D47A1"/>
<path d="M482.864 73.3418H476.716V40.9998H465.652V35.7268H493.927V40.9998H482.864V73.3418Z" fill="#0D47A1"/>
<path d="M520.968 73.3418H499.691V35.7268H520.968V40.9238H505.839V51.1638H520.016V56.3088H505.839V68.1188H520.968V73.3418Z" fill="#0D47A1"/>
</svg>
