<svg width="699" height="155" viewBox="0 0 699 155" fill="none" xmlns="http://www.w3.org/2000/svg">
<path d="M166.88 13.032H137.36V42.936H142.448V17.928H161.792V42.744H166.88V13.032ZM149.504 21.24V32.52C149.216 37.416 147.92 41.352 145.616 44.424C143.264 47.256 138.704 49.608 131.984 51.528L134.768 55.944C141.536 54.024 146.432 51.288 149.456 47.784C152.576 43.944 154.304 38.856 154.592 32.52V21.24H149.504ZM156.32 43.032L153.68 46.968C159.056 49.08 164.24 52.008 169.28 55.656L172.112 51.288C167.312 48.072 162.08 45.336 156.32 43.032ZM198.976 19.608V24.504H222.064C222.448 30.168 223.12 35.208 224.128 39.528C227.008 50.184 230.8 55.704 235.552 55.992C238.384 55.992 240.496 52.344 241.936 45.096L237.424 42.792C236.608 47.784 235.888 50.328 235.216 50.328C233.968 50.328 232.384 47.64 230.368 42.264C228.832 37.464 227.776 31.512 227.248 24.504H241.168V19.608H235.168L238.24 18.072C236.896 15.768 235.552 13.656 234.112 11.736L229.984 13.752C231.328 15.48 232.624 17.448 233.824 19.608H226.96C226.816 17.112 226.768 14.424 226.768 11.64H221.584C221.584 14.376 221.632 17.016 221.776 19.608H198.976ZM199.648 31.08V35.784H207.52V47.208C204.544 47.688 201.52 48.12 198.496 48.456L199.648 53.208C207.664 52.008 215.2 50.568 222.256 48.888V43.992C219.04 44.856 215.776 45.624 212.512 46.296V35.784H220.384V31.08H199.648ZM280.992 25.416V30.408H293.376V56.136H298.56V30.408H310.32V25.416H298.56V11.496H293.376V25.416H280.992ZM272.544 11.88L268.992 15.336C272.4 17.832 275.04 20.184 276.864 22.392L280.32 18.888C278.16 16.584 275.568 14.232 272.544 11.88ZM265.872 25.752V30.552H272.448V47.592C272.448 48.6 272.016 49.464 271.152 50.184L273.072 54.696C276.624 52.392 279.936 49.8 283.056 46.92L281.76 41.784C280.176 43.272 278.688 44.616 277.296 45.816V25.752H265.872ZM339.92 22.248V42.024H345.824V43.368C345.824 43.656 345.776 43.944 345.728 44.28H334.544V48.6H344.096C344.048 48.696 344 48.744 343.952 48.84C342.8 50.136 340.544 51.24 337.232 52.152L339.776 56.136C343.52 55.08 346.256 53.592 347.936 51.672C348.656 50.808 349.28 49.752 349.76 48.6H362.192V56.088H367.136V48.6H377.456V44.28H367.136V42.024H372.656V22.248H359.552C360.512 21.096 361.376 19.8 362.192 18.456H365.12C365.984 19.656 366.752 20.904 367.424 22.2L371.456 20.664C371.072 19.992 370.592 19.224 370.064 18.456H376.832V14.232H364.208C364.448 13.608 364.688 12.984 364.928 12.312L360.128 11.256C359.168 14.328 357.488 17.256 355.136 19.992L358.64 22.248H339.92ZM350.816 42.024H362.192V44.28H350.768C350.768 43.992 350.816 43.656 350.816 43.368V42.024ZM367.76 38.28H344.816V36.36H367.76V38.28ZM344.816 32.952V31.224H367.76V32.952H344.816ZM344.816 27.816V26.04H367.76V27.816H344.816ZM342.368 18.696H345.488C346.304 19.8 347.024 20.952 347.648 22.152L351.728 20.616C351.344 19.992 350.912 19.368 350.432 18.696H355.376V14.472H344.528C344.816 13.752 345.152 12.984 345.44 12.216L340.688 11.16C339.488 14.664 337.472 17.928 334.592 21L338.72 23.64C340.064 22.104 341.264 20.472 342.368 18.696Z" fill="black"/>
<path fill-rule="evenodd" clip-rule="evenodd" d="M158.117 126.727C141.629 126.727 127 114.826 127 96.6021C127 78.2542 141.629 66.3528 158.117 66.3528C174.605 66.3528 189.234 78.2542 189.234 96.6021C189.234 114.826 174.605 126.727 158.117 126.727ZM158.117 111.603C166.176 111.603 172.746 105.528 172.746 96.6021C172.746 87.5521 166.176 81.4775 158.117 81.4775C150.059 81.4775 143.489 87.5521 143.489 96.6021C143.489 105.528 150.059 111.603 158.117 111.603ZM230.741 66.3528C245.618 66.3528 259.131 78.0062 259.131 96.6021C259.131 115.198 245.618 126.727 230.741 126.727C224.17 126.727 216.236 124.248 212.145 118.421V154.001H195.905V67.8405H212.145V74.7829C216.236 68.9562 224.17 66.3528 230.741 66.3528ZM227.642 111.479C235.824 111.479 242.519 105.156 242.519 96.6021C242.519 88.172 235.824 81.6014 227.642 81.6014C219.708 81.6014 212.641 87.8001 212.641 96.6021C212.641 105.528 220.08 111.479 227.642 111.479ZM323.201 95.7343C323.201 97.346 323.077 99.3295 322.953 101.933H279.315C281.05 108.627 286.505 112.347 294.315 112.347C300.142 112.347 305.969 109.991 309.44 105.9L318.986 115.446C313.531 122.76 303.365 126.727 293.2 126.727C275.472 126.727 262.454 114.578 262.454 96.7261C262.454 78.0062 276.587 66.3528 293.2 66.3528C309.688 66.3528 323.201 78.0062 323.201 95.7343ZM279.314 91.3953H306.96C306.464 84.5768 300.761 80.4857 293.447 80.4857C286.876 80.4857 281.05 83.585 279.314 91.3953ZM363.22 66.3528C357.517 66.3528 348.343 69.7001 345.864 77.5103V67.8405H329.623V125.612H345.864V95.9823C345.864 85.4446 353.054 82.3453 358.881 82.3453C364.459 82.3453 369.914 86.4364 369.914 95.6103V125.612H386.155V93.8747C386.279 76.5186 378.344 66.3528 363.22 66.3528ZM429.513 66.4768C444.39 66.4768 457.903 78.0062 457.903 96.6021C457.903 115.198 444.39 126.727 429.513 126.727C422.943 126.727 415.009 124.248 410.917 118.421V125.612H394.677V36.9713H410.917V74.7829C415.009 68.9562 422.943 66.4768 429.513 66.4768ZM426.414 111.603C434.597 111.603 441.291 105.032 441.291 96.6021C441.291 88.048 434.597 81.7254 426.414 81.7254C418.852 81.7254 411.414 87.6761 411.414 96.6021C411.414 105.404 418.48 111.603 426.414 111.603ZM508.087 67.8405H524.328V125.612H508.087V118.421C503.996 124.124 495.938 126.727 489.492 126.727C474.615 126.727 461.102 115.198 461.102 96.6021C461.102 78.0062 474.615 66.4768 489.492 66.4768C496.186 66.4768 503.996 68.9562 508.087 74.7829V67.8405ZM492.591 111.603C500.525 111.603 507.592 105.404 507.592 96.6021C507.592 87.6761 500.153 81.7254 492.591 81.7254C484.409 81.7254 477.59 88.048 477.59 96.6021C477.59 105.032 484.409 111.603 492.591 111.603ZM571.91 67.8405H589.39L553.686 154.001H536.33L549.967 120.157L527.156 67.8405H545.008L558.645 101.189L571.91 67.8405ZM647.756 95.7343C647.756 97.346 647.632 99.3295 647.508 101.933H603.87C605.605 108.627 611.06 112.347 618.87 112.347C624.697 112.347 630.524 109.991 633.995 105.9L643.541 115.446C638.086 122.76 627.92 126.727 617.755 126.727C600.027 126.727 587.01 114.578 587.01 96.7261C587.01 78.0062 601.142 66.3528 617.755 66.3528C634.243 66.3528 647.756 78.0062 647.756 95.7343ZM603.871 91.3953H631.517C631.021 84.5768 625.318 80.4857 618.004 80.4857C611.433 80.4857 605.607 83.585 603.871 91.3953ZM674.634 126.727C686.535 126.727 698.933 120.777 698.933 108.627C698.933 103.916 697.197 95.2384 683.312 91.5192L673.766 89.0398C670.543 88.172 668.064 86.8083 668.064 84.0809C668.064 81.1055 671.039 79.246 674.758 79.246C678.601 79.246 681.824 81.3535 681.824 85.1966H697.321C697.445 71.5597 685.048 66.3528 674.51 66.3528C661.121 66.3528 651.823 74.659 651.823 83.585C651.823 89.6597 653.807 97.9658 668.683 101.933L676.37 103.793C680.709 104.908 682.692 106.148 682.692 108.627C682.692 111.975 679.097 113.958 674.386 113.958C668.683 113.958 665.832 110.363 665.832 107.016H650.583C650.707 119.785 662.485 126.727 674.634 126.727Z" fill="black"/>
<path fill-rule="evenodd" clip-rule="evenodd" d="M67.2399 37.6317L0.34375 60.4705V124.419L24.4476 116.19V76.7324L67.2399 62.1228V37.6317Z" fill="#007EFF"/>
<path fill-rule="evenodd" clip-rule="evenodd" d="M34.4473 82.7324L101.343 59.8936V123.842L34.4473 146.681V82.7324Z" fill="#56AAFF"/>
</svg>
