<?xml version="1.0" standalone="no"?>
<!DOCTYPE svg PUBLIC "-//W3C//DTD SVG 20010904//EN"
 "http://www.w3.org/TR/2001/REC-SVG-20010904/DTD/svg10.dtd">
<svg version="1.0" xmlns="http://www.w3.org/2000/svg"
 width="128.000000pt" height="129.000000pt" viewBox="0 0 128.000000 129.000000"
 preserveAspectRatio="xMidYMid meet">

<g transform="translate(0.000000,129.000000) scale(0.100000,-0.100000)"
fill="#000000" stroke="none">
<path d="M235 1281 c-90 -23 -178 -101 -211 -187 -18 -45 -19 -80 -19 -454 0
-391 1 -407 21 -451 28 -60 76 -114 133 -147 l46 -27 417 -3 c410 -3 418 -2
468 19 32 14 69 42 100 76 80 88 81 94 78 560 -3 383 -4 400 -24 444 -28 60
-93 125 -153 153 -44 20 -60 21 -436 23 -214 1 -403 -2 -420 -6z m830 -80 c49
-23 99 -74 119 -123 22 -52 24 -810 2 -862 -22 -52 -72 -102 -126 -125 -50
-21 -59 -22 -439 -19 l-388 3 -49 30 c-30 19 -60 49 -79 79 l-30 49 -3 394
c-2 245 1 408 8 431 13 50 69 115 122 141 42 20 56 21 433 21 359 0 393 -2
430 -19z"/>
<path d="M226 1118 c-23 -33 -24 -419 -1 -438 12 -10 18 -10 30 0 12 10 15 48
17 189 l3 176 38 -72 c27 -53 44 -74 61 -79 35 -8 44 0 77 70 l29 61 0 -166
c0 -136 3 -169 15 -179 12 -10 18 -10 30 0 12 10 15 47 15 217 0 122 -4 212
-10 224 -6 11 -21 19 -36 19 -22 0 -31 -11 -67 -90 l-41 -90 -39 73 c-21 39
-46 80 -54 90 -22 23 -49 21 -67 -5z"/>
<path d="M800 1108 c-65 -33 -101 -90 -107 -170 -7 -78 7 -126 50 -175 121
-137 317 -39 317 158 0 48 -35 134 -66 161 -27 24 -88 48 -122 48 -15 0 -48
-10 -72 -22z m152 -65 c68 -62 71 -174 7 -248 -100 -114 -263 27 -205 179 37
96 132 129 198 69z"/>
<path d="M230 635 c-19 -23 -2 -70 46 -124 l44 -49 -31 -38 c-43 -53 -67 -110
-75 -177 -7 -61 4 -87 36 -87 22 0 30 19 30 74 0 46 37 131 70 161 19 17 21
17 40 0 33 -30 70 -115 70 -161 0 -55 8 -74 30 -74 36 0 45 26 33 96 -12 71
-41 135 -80 176 l-26 27 46 51 c52 58 68 104 43 128 -21 22 -47 6 -58 -34 -4
-16 -23 -45 -43 -64 l-35 -34 -31 30 c-17 16 -40 48 -50 72 -19 44 -38 53 -59
27z"/>
<path d="M606 624 c-11 -30 -6 -82 10 -95 34 -28 65 26 50 87 -7 28 -50 34
-60 8z"/>
<path d="M750 621 c-11 -21 -15 -408 -4 -435 8 -21 50 -21 58 0 3 9 6 94 6
190 l0 175 38 -30 c20 -17 63 -41 95 -55 l57 -26 0 -134 c0 -114 2 -135 16
-140 40 -15 44 7 44 234 0 180 -3 220 -15 230 -29 24 -45 4 -45 -55 0 -31 -4
-55 -10 -55 -21 0 -89 40 -135 80 -51 44 -88 51 -105 21z"/>
<path d="M611 486 c-8 -9 -11 -62 -9 -166 3 -130 6 -154 20 -163 12 -8 21 -7
32 2 13 11 16 39 16 165 0 151 -5 176 -36 176 -6 0 -17 -6 -23 -14z"/>
</g>
</svg>
